<svg xmlns="http://www.w3.org/2000/svg" width="28.993" height="33.12" viewBox="0 0 28.993 33.12"><defs><style>.a{fill:#436ab2;}</style></defs><g transform="translate(-1651.63 -85)"><path class="a" d="M1666.439,113.465a97.262,97.262,0,0,1-11.368-.494c-1.013-.108-2.02-.277-3.032-.4-.32-.04-.416-.179-.408-.5a2.486,2.486,0,0,1,1.339-2.548,4.61,4.61,0,0,0,2.808-4.49q.155-3.77.2-7.543a10.9,10.9,0,0,1,7.112-10.225,1.5,1.5,0,0,1,.232-.078,1.129,1.129,0,0,0,1.09-.984,1.716,1.716,0,0,1,1.916-1.187,1.854,1.854,0,0,1,1.66,1.645.415.415,0,0,0,.369.426,10.606,10.606,0,0,1,7.906,10.2c.05,2.122.02,4.246.1,6.366a20.175,20.175,0,0,0,.4,3.026,3.356,3.356,0,0,0,1.852,2.45c.109.056.209.129.321.179a2.686,2.686,0,0,1,1.68,2.807c-.012.3-.091.435-.4.473-1.7.205-3.4.463-5.1.628-1.448.14-2.9.209-4.358.25S1667.881,113.465,1666.439,113.465Z"/><path class="a" d="M1665.727,122.592h6.655a3.065,3.065,0,0,1-1.153,2.886,3.419,3.419,0,0,1-3.824.33A3.258,3.258,0,0,1,1665.727,122.592Z" transform="translate(-3.039 -8.124)"/></g></svg>