<svg xmlns="http://www.w3.org/2000/svg" width="30.651" height="33.607" viewBox="0 0 30.651 33.607"><defs><style>.a{fill:#436ab2;}.b{fill:#f48654;}.c{fill:#fff;}</style></defs><path class="a" d="M1717.043,79.732c-2.514,1.911-3.62,4.391-2.76,7.451.891,3.171,3.2,4.721,6.439,4.974.05.975.046,1.945.163,2.9a20.95,20.95,0,0,0,.555,2.873,2.92,2.92,0,0,0,1.479,1.764c.42.238.845.472,1.238.749a2.729,2.729,0,0,1,.958,2.619c-.029.106-.23.217-.365.235-1.461.207-2.92.443-4.388.581a104.554,104.554,0,0,1-15.761.227c-2.807-.158-5.6-.528-8.4-.792-.366-.034-.516-.18-.452-.55.035-.2.029-.412.045-.62a2.14,2.14,0,0,1,.977-1.735,7.59,7.59,0,0,1,.851-.51,3.882,3.882,0,0,0,2.146-3.009,29.268,29.268,0,0,0,.377-5.112c.012-1.339-.041-2.681.03-4.017a10.836,10.836,0,0,1,6.341-9.781,12.225,12.225,0,0,1,1.712-.6.4.4,0,0,0,.335-.381,1.895,1.895,0,0,1,3.766.054c.025.267.137.335.364.392a10.379,10.379,0,0,1,4.04,2.017C1716.834,79.544,1716.934,79.637,1717.043,79.732Z" transform="translate(-1695.731 -75.333)"/><path class="b" d="M1719.561,86.4a5.651,5.651,0,1,1,5.606,5.669A5.65,5.65,0,0,1,1719.561,86.4Zm6.48-2.934c.05-.778-.368-1.3-1.042-1.289a1.066,1.066,0,0,0-1.042,1.293c.147,1.535.309,3.069.455,4.6.036.381.181.64.591.654.34.013.548-.214.592-.658C1725.749,86.536,1725.894,85,1726.041,83.465Zm-1.056,7.14a.686.686,0,1,0,.029-1.371.686.686,0,1,0-.029,1.371Z" transform="translate(-1700.213 -76.352)"/><path class="a" d="M1709.524,112.166h6.845a3.378,3.378,0,0,1-1.4,3.033,3.439,3.439,0,0,1-3.787.189A3.35,3.35,0,0,1,1709.524,112.166Z" transform="translate(-1698.32 -82.259)"/><path class="c" d="M1727.058,83.8c-.148,1.535-.293,3.071-.447,4.605-.044.443-.252.671-.592.658-.41-.015-.555-.274-.591-.654-.146-1.535-.308-3.068-.455-4.6a1.066,1.066,0,0,1,1.042-1.293C1726.69,82.5,1727.108,83.018,1727.058,83.8Z" transform="translate(-1701.229 -76.682)"/><path class="c" d="M1726.083,92.57a.686.686,0,1,1,.711-.69A.692.692,0,0,1,1726.083,92.57Z" transform="translate(-1701.31 -78.317)"/></svg>