<svg xmlns="http://www.w3.org/2000/svg" width="21.815" height="17.052" viewBox="0 0 21.815 17.052"><defs><style>.a{fill:#436bb3;}</style></defs><path class="a" d="M48.778,478.673a2.147,2.147,0,1,0,3.036,0,2.147,2.147,0,0,0-3.036,0Zm0,0" transform="translate(-39.388 -465.285)"/><path class="a" d="M49.853,472.886a6.575,6.575,0,0,0-4.682,1.94,1.256,1.256,0,0,0,1.777,1.776,4.109,4.109,0,0,1,5.811,0,1.256,1.256,0,0,0,1.776-1.776,6.575,6.575,0,0,0-4.682-1.94Zm0,0" transform="translate(-38.945 -464.603)"/><path class="a" d="M49.406,468.118a10.691,10.691,0,0,0-7.608,3.151,1.256,1.256,0,0,0,1.777,1.777,8.246,8.246,0,0,1,11.662,0,1.256,1.256,0,1,0,1.777-1.777,10.687,10.687,0,0,0-7.608-3.151Zm0,0" transform="translate(-38.499 -463.971)"/><path class="a" d="M59.5,467.705a14.9,14.9,0,0,0-21.08,0,1.256,1.256,0,1,0,1.776,1.777,12.391,12.391,0,0,1,17.526,0,1.257,1.257,0,0,0,1.778-1.777Zm0,0" transform="translate(-38.051 -463.339)"/></svg>