<svg xmlns="http://www.w3.org/2000/svg" width="21.691" height="21.691" viewBox="0 0 21.691 21.691"><defs><style>.a{fill:#436ab2;}</style></defs><g transform="translate(0 1)"><ellipse class="a" cx="2.386" cy="2.335" rx="2.386" ry="2.335" transform="translate(8.459 7.511)"/><path class="a" d="M56.708,542.843a10.845,10.845,0,0,0-18.514,7.668v10.846H49.04a10.845,10.845,0,0,0,7.668-18.514Zm-.226,8.434a17.113,17.113,0,0,1-2.042.9l-.378.888a15.279,15.279,0,0,1,.842,2.012l-1.157,1.131a16.883,16.883,0,0,1-2.088-.783l-.91.37a14.949,14.949,0,0,1-.859,2H48.257a15.915,15.915,0,0,1-.915-1.995l-.91-.37a15.567,15.567,0,0,1-2.055.821l-1.157-1.131a16.279,16.279,0,0,1,.8-2.046l-.378-.888a16.026,16.026,0,0,1-2.046-.843v-1.6a17.629,17.629,0,0,1,2.042-.889l.375-.893a15.218,15.218,0,0,1-.838-2.012l1.157-1.131a16.889,16.889,0,0,1,2.093.778l.906-.365a15.063,15.063,0,0,1,.859-2h1.634a16.091,16.091,0,0,1,.915,2l.91.366a16.057,16.057,0,0,1,2.054-.821l1.157,1.131a16.478,16.478,0,0,1-.8,2.046l.374.894a15.984,15.984,0,0,1,2.046.837Z" transform="translate(-38.194 -540.666)"/></g></svg>