<svg xmlns="http://www.w3.org/2000/svg" width="21.691" height="16.588" viewBox="0 0 21.691 16.588"><defs><style>.a{fill:#436ab2;}</style></defs><path class="a" d="M54.05,317.928H44.076v-4.869a1.51,1.51,0,0,1,1.51-1.51h9.974v4.869A1.51,1.51,0,0,1,54.05,317.928Z" transform="translate(-38.972 -306.445)"/><path class="a" d="M60.664,313.059v8.464a1.511,1.511,0,0,1-1.51,1.51H45.586a1.511,1.511,0,0,1-1.51-1.51v-.617H56.6a1.511,1.511,0,0,0,1.511-1.51v-7.847h1.042A1.51,1.51,0,0,1,60.664,313.059Z" transform="translate(-38.972 -306.445)"/><path class="a" d="M54.781,307.176v1.042H38.194v-1.042a1.51,1.51,0,0,1,1.51-1.51H53.271A1.51,1.51,0,0,1,54.781,307.176Z" transform="translate(-38.194 -305.666)"/><path class="a" d="M38.194,311.549H54.781v4.869a1.51,1.51,0,0,1-1.51,1.51H39.7a1.51,1.51,0,0,1-1.51-1.51Z" transform="translate(-38.194 -306.445)"/></svg>